<?xml version="1.0" encoding="UTF-8"?>
<svg id="Capa_2" data-name="Capa 2" xmlns="http://www.w3.org/2000/svg" viewBox="0 0 1157.36 407.64">
  <defs>
    <style>
      .cls-1 {
        fill: #629db2;
      }

      .cls-1, .cls-2, .cls-3, .cls-4, .cls-5, .cls-6, .cls-7, .cls-8 {
        stroke-width: 0px;
      }

      .cls-2 {
        fill: #d8e4ea;
      }

      .cls-9 {
        opacity: .2;
      }

      .cls-3 {
        fill: #84b7ce;
      }

      .cls-4 {
        fill: #b7e2f9;
      }

      .cls-5 {
        fill: #5299ce;
      }

      .cls-6 {
        fill: #efefef;
      }

      .cls-7 {
        fill: #fff;
      }

      .cls-8 {
        fill: #9bc6e0;
      }
    </style>
  </defs>
  <g id="fondo">
    <g>
      <rect class="cls-4" x="28.36" width="1004.38" height="266.25"/>
      <g class="cls-9">
        <path class="cls-3" d="M27.2,66.38s196.92,84.94,338.62,35.55c182.23-63.52,240.06-71.35,367.87-47.86,129.17,23.74,187.09,68.31,299.27,83.93l-.15,99.9s-36.96-72.79-194.19-135.97c-141.2-56.74-278.24-36.67-513.92,23.27-101.84,25.9-296.95,17.27-296.95,17.27l-.55-76.09Z"/>
      </g>
      <path class="cls-3" d="M535.24,184.21l86.72,59.6-383.74,5.98,66.44-54.31c69.8-57.06,157.69-61.36,230.58-11.26Z"/>
      <path class="cls-1" d="M297.02,199.39l86.72,45.8L0,249.78l66.44-41.74c69.8-43.85,157.69-47.15,230.58-8.65Z"/>
      <path class="cls-1" d="M1070.64,199.39l86.72,45.8-383.74,4.6,66.44-41.74c69.8-43.85,157.69-47.15,230.58-8.65Z"/>
      <rect class="cls-7" x="28.36" y="236.81" width="1004.38" height="170.84"/>
      <g>
        <path class="cls-6" d="M52.77,286.79s8.85-4.43,16.34-3.74,12.6-.07,14.98,1.84,12.6,5.99,18.04,7.7,18.04,3.51,12.6,3.63-28.94-1.59-36.09-1.59-14.64,1.81-19.74,1.59-19.74-3.63-19.74-3.63l13.62-5.79Z"/>
        <path class="cls-6" d="M400.6,377.01c-3.83-.77-12.26,1.53-37.53,0s-25.28-7.35-48.26.54-70.07,9.42-74.86,8.65,61.84.35,75.63.18,20.68,5.58,36,.02,62.04-5.23,62.04-5.23l-13.02-4.15Z"/>
        <path class="cls-6" d="M1005.19,277.69c-21.45-.03-42.38-.23-63.06-.24s-42.89-.72-68.94,1.16,14.55-7.63,31.4-4.4c16.85,3.23,35.07-1.7,45.19,0s55.4,3.48,55.4,3.48Z"/>
        <path class="cls-6" d="M439.15,257.07s-24.51,1.26-32.34,0-5.11,1.26-13.62,0-20.77-.36-20.77-.36c0,0,10.55-4.76,17.36-3.51s7.17.7,10.55,2.11,9.53-.16,14.98,0,13.53-2.68,14.77-2.11,9.06,3.87,9.06,3.87Z"/>
        <path class="cls-6" d="M952.85,370.88c-9.7-.51-19.4-.37-29.11,2.62-9.7,2.99-24.51,2.48-36.26,2.99s-13.92-3.29-22.79-2.92-16.53.02-16.53.02c0,0,17.36-7.31,31.15-7.31s26.04,6.17,33.7,5.13,14.3-5.13,24.51-5.13,15.32,4.6,15.32,4.6Z"/>
        <path class="cls-6" d="M681.72,259.2c-17.38,2.4-18.91,4.24-33.72,0-14.81-4.24-16.33-8.14-26.04-3.89s-9.2,5.54,0,6.43,13.79,4.51,21.45,4.51,41.36-2.64,41.36-2.64l-3.04-4.4Z"/>
      </g>
      <path class="cls-2" d="M595.15,328.07c0,2.69-2.17,5.26-6.16,7.66-14.85,8.93-54.9,15.32-101.97,15.32s-87.12-6.39-101.97-15.32c-3.99-2.4-6.16-4.97-6.16-7.66,0-12.69,48.41-22.98,108.13-22.98s108.13,10.29,108.13,22.98Z"/>
      <path class="cls-5" d="M585.05,330.65c-14.85,8.93-54.9,15.32-101.97,15.32s-87.12-6.39-101.97-15.32c14.85-8.93,54.9-15.32,101.97-15.32s87.12,6.39,101.97,15.32Z"/>
      <path class="cls-8" d="M501.11,332.64c17.83,0,29.25,1.92,30.89,3.34-1.65,1.42-13.06,3.34-30.89,3.34s-29.25-1.92-30.89-3.34c1.65-1.42,13.06-3.34,30.89-3.34M501.11,331.64c-17.67,0-32,1.94-32,4.34s14.33,4.34,32,4.34,32-1.94,32-4.34-14.33-4.34-32-4.34h0Z"/>
    </g>
  </g>
</svg>