<?xml version="1.0" encoding="UTF-8"?>
<svg id="Capa_2" data-name="Capa 2" xmlns="http://www.w3.org/2000/svg" viewBox="0 0 109.6 80.51">
  <defs>
    <style>
      .cls-1 {
        fill: #fff;
      }

      .cls-1, .cls-2 {
        stroke: #b8d1d8;
        stroke-miterlimit: 10;
      }

      .cls-2 {
        fill: #444;
      }
    </style>
  </defs>
  <g id="Capa_1-2" data-name="Capa 1">
    <g>
      <rect class="cls-1" x=".5" y="56.49" width="63.75" height="23.52"/>
      <path class="cls-1" d="M109.1,54.8v1.69H31.06v-28.85h70.77c4.62,7.99,7.27,17.27,7.27,27.16Z"/>
      <path class="cls-1" d="M64.25,1.32v26.32H7.77c5.41-9.35,13.53-16.94,23.29-21.69,7.17-3.49,15.23-5.45,23.74-5.45,3.22,0,6.38.28,9.45.82Z"/>
      <path class="cls-1" d="M7.77,27.64h23.29v28.85H.5v-1.69c0-9.89,2.65-19.17,7.27-27.16Z"/>
      <path class="cls-1" d="M101.83,27.64h-37.58V1.32c11.21,1.97,21.23,7.37,28.95,15.08,3.34,3.34,6.25,7.12,8.63,11.24Z"/>
      <rect class="cls-1" x="64.25" y="56.49" width="44.85" height="23.52"/>
      <path class="cls-1" d="M96.93,56.89v23.12h-32.68v-23.12c0-9.02,7.32-16.34,16.34-16.34,4.51,0,8.6,1.83,11.56,4.79,2.95,2.95,4.78,7.04,4.78,11.55Z"/>
      <g>
        <path class="cls-1" d="M96.93,56.89v23.12h-32.68v-23.12c0-9.02,7.32-16.34,16.34-16.34,4.51,0,8.6,1.83,11.56,4.79,2.95,2.95,4.78,7.04,4.78,11.55Z"/>
        <path class="cls-2" d="M91.48,57.7v22.31h-21.78v-22.31c0-6.02,4.87-10.89,10.89-10.89,3.01,0,5.73,1.22,7.7,3.19,1.97,1.97,3.19,4.69,3.19,7.7Z"/>
      </g>
    </g>
  </g>
</svg>