<?xml version="1.0" encoding="UTF-8"?>
<svg id="Capa_2" data-name="Capa 2" xmlns="http://www.w3.org/2000/svg" viewBox="0 0 298.46 74.95">
  <defs>
    <style>
      .cls-1 {
        fill: #fff;
        stroke-width: 0px;
      }
    </style>
  </defs>
  <g id="Capa_1-2" data-name="Capa 1">
    <path class="cls-1" d="M298.46,74.95H0l44.44-5.11c.77-13.9,12.29-24.95,26.39-24.95,3.44,0,6.74.66,9.76,1.86.88-9.59,8.96-17.11,18.78-17.11,1.73,0,3.4.23,4.99.67-.23-1.4-.35-2.84-.35-4.3,0-14.37,11.65-26.02,26.02-26.02s26.02,11.65,26.02,26.02c0,.29,0,.57-.01.86,3.98,1.04,7.6,3.01,10.59,5.66,1.77-12.64,12.64-22.37,25.77-22.37s23.8,9.56,25.72,22.04h0c5.97.64,10.99,4.49,13.28,9.78l.55,1.46c.52,1.6.81,3.31.81,5.08,0,1.19-.12,2.35-.37,3.47.84-.26,1.7-.45,2.59-.56.7-.1,1.43-.14,2.16-.14,9.06,0,16.4,7.35,16.4,16.41,0,1.7-.26,3.34-.74,4.89l45.65,2.37Z"/>
  </g>
</svg>