<?xml version="1.0" encoding="UTF-8"?>
<svg id="Capa_2" data-name="Capa 2" xmlns="http://www.w3.org/2000/svg" viewBox="0 0 65.08 26.6">
  <defs>
    <style>
      .cls-1 {
        fill: #845828;
      }

      .cls-1, .cls-2 {
        stroke-width: 0px;
      }

      .cls-2 {
        fill: #f7c486;
      }
    </style>
  </defs>
  <g id="Capa_1-2" data-name="Capa 1">
    <g>
      <path class="cls-2" d="M13.3,0h1.12v26.6h-1.12C5.96,26.6,0,20.64,0,13.3H0C0,5.96,5.96,0,13.3,0Z"/>
      <path class="cls-1" d="M11.31,12.26c-.13.13-.3.2-.47.2s-.34-.07-.46-.2l-2.49-2.49-2.56,2.55c-.13.13-.3.2-.47.2s-.34-.07-.47-.2c-.26-.26-.26-.67,0-.93l2.56-2.56-2.28-2.28c-.26-.26-.26-.67,0-.93.26-.26.67-.26.93,0l2.28,2.28,2.34-2.34c.26-.26.67-.26.94,0,.26.26.26.67,0,.93l-2.34,2.35,2.49,2.49c.26.26.26.67,0,.93Z"/>
      <rect class="cls-2" x="14.42" y="11.8" width="42.22" height="2.12"/>
      <path class="cls-2" d="M23.35,1.41c2.32,6.33,2.64,14.59.56,21.09-.23.72-1.31.54-1.3-.22.07-6.81-.31-15.74-.55-20.61-.04-.76,1.03-.98,1.29-.27Z"/>
      <path class="cls-2" d="M30.2,1.41c2.32,6.33,2.64,14.59.56,21.09-.23.72-1.31.54-1.3-.22.07-6.81-.31-15.74-.55-20.61-.04-.76,1.03-.98,1.29-.27Z"/>
      <path class="cls-2" d="M37.94,2.75c2.32,5.53,2.64,12.75.56,18.42-.23.63-1.31.47-1.3-.19.07-5.95-.31-13.75-.55-18-.04-.66,1.03-.86,1.29-.23Z"/>
      <path class="cls-2" d="M44.23,4.89c2.32,4.24,2.64,9.78.56,14.14-.23.48-1.31.36-1.3-.14.07-4.57-.31-10.55-.55-13.81-.04-.51,1.03-.66,1.29-.18Z"/>
      <path class="cls-2" d="M50.85,6.23c2.32,3.44,2.64,7.94.56,11.47-.23.39-1.31.3-1.3-.12.07-3.71-.31-8.56-.55-11.21-.04-.41,1.03-.53,1.29-.15Z"/>
      <path class="cls-2" d="M56.65,11.8S60.69-.03,63.83,5.37s-3.14,8.55-3.14,8.55c0,0,7.02,4.12,3.31,7.65s-7.35-7.65-7.35-7.65v-2.12Z"/>
    </g>
  </g>
</svg>