<?xml version="1.0" encoding="UTF-8"?>
<svg id="Capa_2" data-name="Capa 2" xmlns="http://www.w3.org/2000/svg" viewBox="0 0 50.67 43.23">
  <g id="Capa_1-2" data-name="Capa 1">
    <g>
      <path d="M43.26,.42l-6.17,2.59c3.64,0,1.72,5.14,1.72,8.79l3.33,21.77c0,3.64-2.55,5.08-3,9.28l8.28-3.94c1.99-.83,3.28-2.78,3.28-4.93V5.36c0-3.82-3.89-6.41-7.42-4.93Z" fill="#abdaef"/>
      <polygon points="3.61 3.73 13.46 0 45.29 0 36.99 3.36 3.61 3.73" fill="#e1f6ff"/>
      <rect x="0" y="3.01" width="43.68" height="40.22" rx="6.6" ry="6.6" fill="#c7e9f9"/>
      <path d="M9.28,22.43c-.26,0-.52-.1-.71-.3-.39-.39-.38-1.03,.01-1.41l12.56-12.36c.39-.39,1.03-.38,1.41,.01,.39,.39,.38,1.03-.01,1.41l-12.56,12.36c-.19,.19-.45,.29-.7,.29Z" fill="#fcfcfc"/>
      <path d="M6.85,33.36c-.25,0-.51-.09-.7-.29-.39-.39-.4-1.02-.01-1.41L29.24,8.11c.39-.4,1.02-.4,1.41-.01,.39,.39,.4,1.02,.01,1.41L7.56,33.06c-.2,.2-.46,.3-.71,.3Z" fill="#fcfcfc"/>
      <path d="M20,28.11c-.25,0-.5-.09-.69-.28-.4-.38-.41-1.02-.03-1.41l9.96-10.33c.38-.4,1.02-.41,1.41-.03,.4,.38,.41,1.02,.03,1.41l-9.96,10.33c-.2,.2-.46,.31-.72,.31Z" fill="#fcfcfc"/>
    </g>
  </g>
</svg>